<svg width="31" height="31" viewBox="0 0 31 31" fill="none" xmlns="http://www.w3.org/2000/svg">
<path d="M30.3089 13.5503L28.201 11.1014C27.798 10.6364 27.4725 9.76843 27.4725 9.14846V6.51358C27.4725 4.87065 26.1241 3.52222 24.4811 3.52222H21.8463C21.2418 3.52222 20.3583 3.19673 19.8934 2.79375L17.4445 0.685844C16.375 -0.228615 14.6236 -0.228615 13.5386 0.685844L11.1052 2.80925C10.6403 3.19673 9.75681 3.52222 9.15234 3.52222H6.47096C4.82803 3.52222 3.47959 4.87065 3.47959 6.51358V9.16396C3.47959 9.76843 3.15411 10.6364 2.76662 11.1014L0.67422 13.5658C-0.22474 14.6352 -0.22474 16.3711 0.67422 17.4406L2.76662 19.905C3.15411 20.37 3.47959 21.2379 3.47959 21.8424V24.4928C3.47959 26.1357 4.82803 27.4841 6.47096 27.4841H9.15234C9.75681 27.4841 10.6403 27.8096 11.1052 28.2126L13.5541 30.3205C14.6236 31.235 16.375 31.235 17.46 30.3205L19.9089 28.2126C20.3738 27.8096 21.2418 27.4841 21.8618 27.4841H24.4966C26.1396 27.4841 27.488 26.1357 27.488 24.4928V21.8579C27.488 21.2534 27.8135 20.37 28.2165 19.905L30.3244 17.4561C31.2233 16.3866 31.2233 14.6197 30.3089 13.5503ZM21.9393 12.5738L14.4531 20.06C14.2351 20.2777 13.9397 20.3999 13.6316 20.3999C13.3236 20.3999 13.0281 20.2777 12.8102 20.06L9.05934 16.3091C8.60986 15.8597 8.60986 15.1157 9.05934 14.6662C9.50882 14.2167 10.2528 14.2167 10.7023 14.6662L13.6316 17.5956L20.2963 10.9309C20.7458 10.4814 21.4898 10.4814 21.9393 10.9309C22.3887 11.3804 22.3887 12.1243 21.9393 12.5738Z" fill="#166AAF"/>
</svg>
